<svg xmlns="http://www.w3.org/2000/svg" version="1.2" viewBox="0 0 985 155" width="985" height="155"><style>.a{fill:#ffffff}.b{fill:#ffffff}</style><path fill-rule="evenodd" class="a" d="m77.6 26.3h40.5l55.7 101.6h-34.6l-9.6-17.9h-63l-9.1 17.9h-34.7zm0.6 61.8h39.7l-20.2-38.2z"/><path class="a" d="m186.1 127.9h31.1v-39h13.7l44.8 39h43.9l-61.3-51.9 54.9-49.7h-42.3l-39.2 37.3h-14.5v-37.3h-31.1z"/><path class="b" d="m391.9 74.6l46.9-47.2h17.4l-58.2 57.8v42.9h-12.2v-42.9l-58-57.8h17.4z"/><path fill-rule="evenodd" class="b" d="m548.8 128.1h-10.6v-8.3q-4.7 8-16.3 8.9-5.9 0.5-19.5 0.5h-9.2q-14.5 0-21.2-3.4-9.8-4.6-9.8-17.8 0-11.5 4.3-16.1 4.3-4.7 15.8-5.8 7.9-0.7 20.5-0.7 12 0 20 0.6 5.7 0.4 8.9 2.1 3.3 1.5 6.5 5.7v-7.5q0-13.6-5.8-17.5-4.9-3.4-25.2-3.4-13.9 0-20.5 0.9-5.6 0.8-7.7 3.7-2.1 2.7-2.1 8.4h-11.5q0-11.3 5.1-16 4.7-4.4 16.3-5.4 9.4-0.9 16.5-0.9 21 0 30.7 2.5 8.9 2.5 12.2 9.6 2.6 5.2 2.6 15.7zm-75.2-20.1q0 7.1 5.1 9.5 3.3 1.8 11.5 2l12.3 0.3q16.1 0.4 21.6-0.7 14.1-2.4 14.1-12.2 0-7.2-5.9-9.9-5.3-2.5-19.9-2.5-2 0-5.2 0-3.1 0.2-4.2 0.2-17.2 0-23.7 2.4-5.7 2.1-5.7 10.9z"/><path class="b" d="m586.7 57.1h49v9.1h-49v34.1q0 11.8 4 15.7 4.1 3.8 16 3.8 10.8 0 15-2.3 6.2-3.1 6.2-12.7 0-1.3 0-4-0.2-2.6-0.2-4h9.8q0 19.7-4.2 25.1-5.4 7.3-25.4 7.3-16.4 0-22.8-3.7-9-5.1-9-20.2v-39.1h-17.2v-9.1h17.2v-16h10.6z"/><path class="b" d="m653.1 57.1h10.6v71h-10.6z"/><path class="b" d="m687.8 57.1h10.6v12.6q2.7-8.3 11.5-11.5 5.9-2.1 16.7-2.1 20.3 0 27.1 4.2 9.3 5.9 9.3 24.8 0 0.6 0 1.6-0.1 1.2-0.1 1.7h-10.4q0-13.3-4.3-18.1-4.2-4.9-17.6-4.9h-3.7q-15.2 0-21.1 4-7.4 4.8-7.4 19v39.7h-10.6z"/><path class="b" d="m778.1 57.1h10.6v71h-10.6z"/><path class="b" d="m812.9 57.1h10.5v11.4q3.2-8.1 12-10.8 5.6-1.6 16.9-1.6h2.2q14.4 0 20.9 1.8 11 3.2 14.9 13.1 4.1-9.8 14.2-13 6.4-1.9 20.1-1.9 19.8 0 27.9 4.7 11.2 6.3 11.2 24.6v42.7h-10.6v-42.7q0-12.6-7.3-16.8-5.6-3.2-19.8-3.2h-3.7q-13.5 0-19.7 3.1-9.1 4.3-9.1 16.9v42.7h-10.6v-42.7q0-13-8.4-17.2-5.5-2.8-20.3-2.8-15.5 0-21.7 3.2-9.1 4.7-9.1 19v40.5h-10.5z"/></svg>
