<svg width="65" height="65" viewBox="0 0 65 65" fill="none" xmlns="http://www.w3.org/2000/svg">
<path d="M32.17 64.1C49.8431 64.1 64.17 49.7731 64.17 32.1C64.17 14.4269 49.8431 0.0999985 32.17 0.0999985C14.4969 0.0999985 0.169983 14.4269 0.169983 32.1C0.169983 49.7731 14.4969 64.1 32.17 64.1Z" fill="#EC1C24"/>
<path d="M40.0379 26.0981H34.7201V22.6462C34.7201 21.3089 35.653 21.0602 36.1817 21.0602C36.8348 21.0602 39.9135 21.0602 39.9135 21.0602V15.1826H34.7201C28.8425 15.1826 27.6608 19.5675 27.6608 22.2419V26.0981H24.3333V32.1H27.6608C27.6608 39.8434 27.6608 49.0174 27.6608 49.0174H34.7201C34.7201 49.0174 34.7201 39.688 34.7201 32.1H39.5092L40.0379 26.0981Z" fill="white"/>
</svg>
