<svg width="64" height="65" viewBox="0 0 64 65" fill="none" xmlns="http://www.w3.org/2000/svg">
<path d="M32.01 64.1C49.6831 64.1 64.01 49.7731 64.01 32.1C64.01 14.4269 49.6831 0.0999985 32.01 0.0999985C14.3369 0.0999985 0.00997925 14.4269 0.00997925 32.1C0.00997925 49.7731 14.3369 64.1 32.01 64.1Z" fill="#EC1C24"/>
<path d="M32.01 16.7686C37.0479 16.7686 37.6387 16.7997 39.629 16.893C41.4638 16.9863 42.459 17.2973 43.1431 17.5461C44.0139 17.8881 44.6669 18.2924 45.32 18.9455C45.9731 19.5986 46.3773 20.2205 46.7194 21.1224C46.9682 21.7754 47.2792 22.7705 47.3725 24.6364C47.4658 26.6267 47.4969 27.2176 47.4969 32.2555C47.4969 37.2934 47.4658 37.8843 47.3725 39.8745C47.2792 41.7093 46.9682 42.7045 46.7194 43.3886C46.3773 44.2594 45.9731 44.9124 45.32 45.5655C44.6669 46.2186 44.045 46.6228 43.1431 46.9649C42.4901 47.2137 41.4949 47.5247 39.629 47.618C37.6387 47.7113 37.0479 47.7424 32.01 47.7424C26.9721 47.7424 26.3812 47.7113 24.391 47.618C22.5562 47.5247 21.561 47.2137 20.8768 46.9649C20.0061 46.6228 19.353 46.2186 18.7 45.5655C18.0469 44.9124 17.6427 44.2905 17.3006 43.3886C17.0518 42.7356 16.7408 41.7404 16.6475 39.8745C16.5542 37.8843 16.5231 37.2934 16.5231 32.2555C16.5231 27.2176 16.5542 26.6267 16.6475 24.6364C16.7408 22.8016 17.0518 21.8065 17.3006 21.1224C17.6427 20.2516 18.0469 19.5986 18.7 18.9455C19.353 18.2924 19.975 17.8881 20.8768 17.5461C21.5299 17.2973 22.5251 16.9863 24.391 16.893C26.3812 16.7686 26.9721 16.7686 32.01 16.7686ZM32.01 13.3789C26.8788 13.3789 26.2568 13.41 24.2355 13.5033C22.2141 13.5966 20.8458 13.9076 19.664 14.3741C18.4201 14.8405 17.3627 15.4936 16.3365 16.5509C15.2792 17.6083 14.6572 18.6656 14.1596 19.8784C13.6932 21.0913 13.3822 22.4596 13.2889 24.4499C13.1956 26.4712 13.1645 27.0932 13.1645 32.2244C13.1645 37.3556 13.1956 37.9776 13.2889 39.9989C13.3822 42.0203 13.6932 43.3886 14.1596 44.5704C14.6261 45.8143 15.2792 46.8716 16.3365 47.8979C17.3938 48.9552 18.4512 49.5772 19.664 50.0747C20.8769 50.5412 22.2452 50.8522 24.2355 50.9455C26.2568 51.0388 26.8788 51.0699 32.01 51.0699C37.1412 51.0699 37.7632 51.0388 39.7845 50.9455C41.8059 50.8522 43.1742 50.5412 44.356 50.0747C45.5999 49.6083 46.6572 48.9552 47.6834 47.8979C48.7408 46.8405 49.3627 45.7832 49.8603 44.5704C50.3268 43.3575 50.6378 41.9892 50.7311 39.9989C50.8244 37.9776 50.8555 37.3556 50.8555 32.2244C50.8555 27.0932 50.8244 26.4712 50.7311 24.4499C50.6378 22.4285 50.3268 21.0602 49.8603 19.8784C49.3938 18.6345 48.7408 17.5772 47.6834 16.5509C46.6261 15.4936 45.5688 14.8716 44.356 14.3741C43.1431 13.9076 41.7748 13.5966 39.7845 13.5033C37.7632 13.3789 37.1412 13.3789 32.01 13.3789Z" fill="white"/>
<path d="M32.01 22.5529C26.6611 22.5529 22.3385 26.8755 22.3385 32.2244C22.3385 37.5733 26.6611 41.8959 32.01 41.8959C37.3589 41.8959 41.6816 37.5733 41.6816 32.2244C41.6816 26.8755 37.3589 22.5529 32.01 22.5529ZM32.01 38.5062C28.527 38.5062 25.7282 35.7074 25.7282 32.2244C25.7282 28.7414 28.527 25.9426 32.01 25.9426C35.493 25.9426 38.2919 28.7414 38.2919 32.2244C38.2919 35.7074 35.493 38.5062 32.01 38.5062Z" fill="white"/>
<path d="M42.0858 24.4187C43.3396 24.4187 44.356 23.4024 44.356 22.1486C44.356 20.8948 43.3396 19.8784 42.0858 19.8784C40.8321 19.8784 39.8157 20.8948 39.8157 22.1486C39.8157 23.4024 40.8321 24.4187 42.0858 24.4187Z" fill="white"/>
</svg>
