<svg width="65" height="65" viewBox="0 0 65 65" fill="none" xmlns="http://www.w3.org/2000/svg">
<path d="M32.95 64.1C50.6231 64.1 64.95 49.7731 64.95 32.1C64.95 14.4269 50.6231 0.0999985 32.95 0.0999985C15.2769 0.0999985 0.949982 14.4269 0.949982 32.1C0.949982 49.7731 15.2769 64.1 32.95 64.1Z" fill="#EC1C24"/>
<path d="M24.8023 42.2691H19.1113V23.9523H24.8023V42.2691ZM21.6925 21.5888C19.5778 21.5888 18.2406 20.2205 18.2406 18.3857C18.2406 16.5198 19.6089 15.1826 21.6925 15.1826C23.776 15.1826 25.1443 16.5509 25.1443 18.3857C25.1754 20.2205 23.9315 21.5888 21.6925 21.5888ZM47.6905 42.2691H41.1288V32.7531C41.1288 30.2652 40.1337 28.5548 37.9257 28.5548C36.1842 28.5548 35.3135 29.6744 34.847 30.7939C34.7226 31.1671 34.7226 31.789 34.7226 32.2866V42.1758H28.2853C28.2853 42.1758 28.4097 25.3517 28.2853 23.859H34.7226V26.72C35.0958 25.4761 37.2104 23.6413 40.4136 23.6413C44.4874 23.6413 47.7216 26.2535 47.7216 31.9445V42.2691H47.6905Z" fill="white"/>
</svg>
