<svg width="65" height="65" viewBox="0 0 65 65" fill="none" xmlns="http://www.w3.org/2000/svg">
<path d="M32.9 64.1C50.5731 64.1 64.9 49.7731 64.9 32.1C64.9 14.4269 50.5731 0.0999985 32.9 0.0999985C15.2269 0.0999985 0.899979 14.4269 0.899979 32.1C0.899979 49.7731 15.2269 64.1 32.9 64.1Z" fill="#EC1C24"/>
<path d="M45.4325 46.1875C45.0905 46.1875 44.7484 46.0942 44.4374 45.9076C32.7756 38.8794 18.9369 42.9533 18.7814 42.9844C17.7552 43.2953 16.6667 42.7045 16.3558 41.6782C16.0448 40.652 16.6356 39.5636 17.6619 39.2526C18.2838 39.066 33.2732 34.619 46.4588 42.549C47.3917 43.1087 47.6716 44.2905 47.1118 45.2234C46.7386 45.8454 46.1167 46.1875 45.4325 46.1875Z" fill="white"/>
<path d="M48.7911 38.1952C48.3869 38.1952 48.0137 38.1019 47.6405 37.8842C32.9933 29.4566 18.2217 34.3701 18.0662 34.4012C16.8533 34.8055 15.5472 34.1836 15.1429 32.9707C14.7386 31.7579 15.3606 30.4518 16.5735 30.0475C17.2576 29.7987 33.4908 24.4187 49.9418 33.8726C51.0302 34.4945 51.4345 35.9251 50.7814 37.0135C50.3772 37.7909 49.5997 38.1952 48.7911 38.1952Z" fill="white"/>
<path d="M52.4296 29.1146C51.9943 29.1146 51.5278 29.0213 51.1235 28.8036C34.2372 19.9406 16.8533 25.2273 16.6978 25.2895C15.2051 25.756 13.6191 24.9474 13.1526 23.4547C12.6862 21.962 13.4947 20.376 14.9874 19.9095C15.796 19.6607 34.797 13.8454 53.7668 23.7968C55.1662 24.512 55.6949 26.2224 54.9486 27.6218C54.451 28.5859 53.4559 29.1146 52.4296 29.1146Z" fill="white"/>
</svg>
