<svg width="65" height="65" viewBox="0 0 65 65" fill="none" xmlns="http://www.w3.org/2000/svg">
<path d="M32.12 64.1C49.7931 64.1 64.12 49.7731 64.12 32.1C64.12 14.4269 49.7931 0.0999985 32.12 0.0999985C14.4469 0.0999985 0.119995 14.4269 0.119995 32.1C0.119995 49.7731 14.4469 64.1 32.12 64.1Z" fill="#EC1C24"/>
<path d="M49.1928 20.6248C47.98 21.2778 46.5184 21.6821 45.1812 21.8376C46.6428 20.9047 47.7002 19.4431 48.2599 17.7016C46.9227 18.5101 45.4611 19.1632 43.7196 19.5674C42.3823 18.1058 40.6408 17.1729 38.6506 17.1729C34.7944 17.1729 31.5913 20.5004 31.5913 24.7608C31.5913 25.2895 31.5913 25.9737 31.7157 26.5023C25.8381 26.2224 20.6447 23.1748 17.1928 18.6345C16.5398 19.6918 16.2599 21.0291 16.2599 22.4907C16.2599 25.1651 17.4727 27.4353 19.3386 28.7414C18.1258 28.7414 17.0684 28.3371 16.1355 27.8085V27.9329C16.1355 31.5402 18.5301 34.5878 21.7332 35.3964C21.2045 35.5208 20.5203 35.6763 19.8673 35.6763C19.463 35.6763 18.9343 35.6763 18.5301 35.5519C19.463 38.6306 21.982 40.7453 25.0607 40.7453C22.6661 42.7356 19.5874 43.9484 16.3843 43.9484C15.8556 43.9484 15.327 43.9484 14.6428 43.824C17.7215 45.9698 21.4533 47.2759 25.4339 47.2759C38.3707 47.2759 45.43 35.8007 45.43 25.8182C45.43 25.5383 45.43 25.1651 45.43 24.8852C47.0471 23.548 48.2599 22.2108 49.1928 20.6248Z" fill="white"/>
</svg>
