<svg width="65" height="65" viewBox="0 0 65 65" fill="none" xmlns="http://www.w3.org/2000/svg">
<path d="M32.06 64.1C49.7331 64.1 64.06 49.7731 64.06 32.1C64.06 14.4269 49.7331 0.0999985 32.06 0.0999985C14.3869 0.0999985 0.0599976 14.4269 0.0599976 32.1C0.0599976 49.7731 14.3869 64.1 32.06 64.1Z" fill="#EC1C24"/>
<path d="M46.9871 24.7608C46.9871 24.6364 46.9871 24.481 46.8627 24.3566V24.2322C46.4585 23.0193 45.4011 22.2419 44.0639 22.2419H44.3438C44.3438 22.2419 39.1504 21.4333 32.0911 21.4333C25.1562 21.4333 19.8384 22.2419 19.8384 22.2419H20.1183C18.7811 22.2419 17.7238 23.0504 17.3195 24.2322V24.3566C17.3195 24.481 17.3195 24.6364 17.1951 24.7608C17.0707 26.0981 16.6664 28.8969 16.6664 32.1C16.6664 35.3031 17.0707 38.1019 17.1951 39.4392C17.1951 39.5636 17.1951 39.719 17.3195 39.8434V39.9678C17.7238 41.1807 18.7811 41.9581 20.1183 41.9581H19.8384C19.8384 41.9581 25.0318 42.7667 32.0911 42.7667C39.026 42.7667 44.3438 41.9581 44.3438 41.9581H44.0639C45.4011 41.9581 46.4585 41.1496 46.8627 39.9678V39.8434C46.8627 39.719 46.8627 39.5636 46.9871 39.4392C47.1115 38.1019 47.5158 35.3031 47.5158 32.1C47.5158 28.8969 47.267 26.0981 46.9871 24.7608ZM36.6003 32.7531L30.3496 37.2934C30.2252 37.4178 30.0697 37.4178 29.9453 37.4178C29.8209 37.4178 29.6654 37.4178 29.541 37.2934C29.2612 37.169 29.1368 36.8891 29.1368 36.6403V27.5908C29.1368 27.3109 29.2612 27.0621 29.541 26.9377C29.8209 26.8133 30.0697 26.8133 30.3496 26.9377L36.6003 31.478C36.7247 31.6024 36.8802 31.8823 36.8802 32.1311C37.0046 32.3488 36.8802 32.6287 36.6003 32.7531Z" fill="white"/>
</svg>
